<mxfile host="app.diagrams.net" agent="Mozilla/5.0 (X11; Linux x86_64) AppleWebKit/537.36 (KHTML, like Gecko) Chrome/131.0.0.0 Safari/537.36" version="26.0.2">
  <diagram name="Page-1" id="iFKKcZNhBd7s_HLNz0p9">
    <mxGraphModel dx="1834" dy="780" grid="1" gridSize="10" guides="1" tooltips="1" connect="1" arrows="1" fold="1" page="0" pageScale="1" pageWidth="827" pageHeight="1169" background="none" math="0" shadow="0">
      <root>
        <mxCell id="0" />
        <mxCell id="1" parent="0" />
        <mxCell id="M7h40Pn0DfAwbQycr6Y6-1" value="Maze" style="swimlane;fontStyle=1;align=center;verticalAlign=top;childLayout=stackLayout;horizontal=1;startSize=26;horizontalStack=0;resizeParent=1;resizeParentMax=0;resizeLast=0;collapsible=1;marginBottom=0;whiteSpace=wrap;html=1;" parent="1" vertex="1">
          <mxGeometry x="-80" y="400" width="440" height="230" as="geometry" />
        </mxCell>
        <mxCell id="M7h40Pn0DfAwbQycr6Y6-2" value="+ size:&amp;nbsp;&lt;span style=&quot;background-color: transparent; color: light-dark(rgb(0, 0, 0), rgb(255, 255, 255));&quot;&gt;Vector2D&lt;/span&gt;&lt;div&gt;&lt;div&gt;+ seed: int&lt;br&gt;&lt;div&gt;+ start_pos: Vector2D&lt;/div&gt;&lt;div&gt;+ finish_pos: Vector2D&lt;/div&gt;&lt;div&gt;+ vertical_walls: numpy.ndarray&lt;/div&gt;&lt;div&gt;+ horizontal_walls: numpy.ndarray&lt;/div&gt;&lt;/div&gt;&lt;/div&gt;" style="text;strokeColor=none;fillColor=none;align=left;verticalAlign=top;spacingLeft=4;spacingRight=4;overflow=hidden;rotatable=0;points=[[0,0.5],[1,0.5]];portConstraint=eastwest;whiteSpace=wrap;html=1;" parent="M7h40Pn0DfAwbQycr6Y6-1" vertex="1">
          <mxGeometry y="26" width="440" height="94" as="geometry" />
        </mxCell>
        <mxCell id="M7h40Pn0DfAwbQycr6Y6-3" value="" style="line;strokeWidth=1;fillColor=none;align=left;verticalAlign=middle;spacingTop=-1;spacingLeft=3;spacingRight=3;rotatable=0;labelPosition=right;points=[];portConstraint=eastwest;strokeColor=inherit;" parent="M7h40Pn0DfAwbQycr6Y6-1" vertex="1">
          <mxGeometry y="120" width="440" height="10" as="geometry" />
        </mxCell>
        <mxCell id="M7h40Pn0DfAwbQycr6Y6-4" value="+ __init__(in width: int, in height: int, in seed: int): None&lt;div&gt;+ __init__(in size: Vector2D, in seed: int): None&lt;/div&gt;&lt;div&gt;+ __init__(in xml_root: xml.etree.ElementTree.Element): None&lt;/div&gt;&lt;div&gt;+ load(in xml_root:&amp;nbsp;&lt;span style=&quot;background-color: transparent; color: light-dark(rgb(0, 0, 0), rgb(255, 255, 255));&quot;&gt;xml.etree.ElementTree.Element): None&lt;/span&gt;&lt;/div&gt;&lt;div&gt;&lt;span style=&quot;background-color: transparent; color: light-dark(rgb(0, 0, 0), rgb(255, 255, 255));&quot;&gt;+ save(out xml_root:&amp;nbsp;&lt;/span&gt;&lt;span style=&quot;background-color: transparent; color: light-dark(rgb(0, 0, 0), rgb(255, 255, 255));&quot;&gt;xml.etree.ElementTree.Element): None&lt;/span&gt;&lt;/div&gt;&lt;div&gt;+ generate(): None&lt;span style=&quot;background-color: transparent; color: light-dark(rgb(0, 0, 0), rgb(255, 255, 255));&quot;&gt;&lt;/span&gt;&lt;/div&gt;" style="text;strokeColor=none;fillColor=none;align=left;verticalAlign=top;spacingLeft=4;spacingRight=4;overflow=hidden;rotatable=0;points=[[0,0.5],[1,0.5]];portConstraint=eastwest;whiteSpace=wrap;html=1;" parent="M7h40Pn0DfAwbQycr6Y6-1" vertex="1">
          <mxGeometry y="130" width="440" height="100" as="geometry" />
        </mxCell>
        <mxCell id="M7h40Pn0DfAwbQycr6Y6-13" value="AppState" style="swimlane;fontStyle=1;align=center;verticalAlign=top;childLayout=stackLayout;horizontal=1;startSize=26;horizontalStack=0;resizeParent=1;resizeParentMax=0;resizeLast=0;collapsible=1;marginBottom=0;whiteSpace=wrap;html=1;" parent="1" vertex="1">
          <mxGeometry x="-80" y="720" width="440" height="160" as="geometry" />
        </mxCell>
        <mxCell id="M7h40Pn0DfAwbQycr6Y6-14" value="&lt;div&gt;+ save_file_path&lt;span style=&quot;background-color: transparent; color: light-dark(rgb(0, 0, 0), rgb(255, 255, 255));&quot;&gt;: str&lt;/span&gt;&lt;/div&gt;+ main_maze: Maze&lt;div&gt;+ mazes_list: List(Maze)&lt;/div&gt;&lt;div&gt;+ solvers_list: List(Solver)&lt;/div&gt;" style="text;strokeColor=none;fillColor=none;align=left;verticalAlign=top;spacingLeft=4;spacingRight=4;overflow=hidden;rotatable=0;points=[[0,0.5],[1,0.5]];portConstraint=eastwest;whiteSpace=wrap;html=1;" parent="M7h40Pn0DfAwbQycr6Y6-13" vertex="1">
          <mxGeometry y="26" width="440" height="64" as="geometry" />
        </mxCell>
        <mxCell id="M7h40Pn0DfAwbQycr6Y6-15" value="" style="line;strokeWidth=1;fillColor=none;align=left;verticalAlign=middle;spacingTop=-1;spacingLeft=3;spacingRight=3;rotatable=0;labelPosition=right;points=[];portConstraint=eastwest;strokeColor=inherit;" parent="M7h40Pn0DfAwbQycr6Y6-13" vertex="1">
          <mxGeometry y="90" width="440" height="8" as="geometry" />
        </mxCell>
        <mxCell id="M7h40Pn0DfAwbQycr6Y6-16" value="+ __init__(in save_file_name: str): None&lt;div&gt;+ load(): None&lt;/div&gt;&lt;div&gt;+ save(): None&lt;/div&gt;" style="text;strokeColor=none;fillColor=none;align=left;verticalAlign=top;spacingLeft=4;spacingRight=4;overflow=hidden;rotatable=0;points=[[0,0.5],[1,0.5]];portConstraint=eastwest;whiteSpace=wrap;html=1;" parent="M7h40Pn0DfAwbQycr6Y6-13" vertex="1">
          <mxGeometry y="98" width="440" height="62" as="geometry" />
        </mxCell>
        <mxCell id="M7h40Pn0DfAwbQycr6Y6-21" value="MazeVisualizerUI" style="swimlane;fontStyle=1;align=center;verticalAlign=top;childLayout=stackLayout;horizontal=1;startSize=26;horizontalStack=0;resizeParent=1;resizeParentMax=0;resizeLast=0;collapsible=1;marginBottom=0;whiteSpace=wrap;html=1;" parent="1" vertex="1">
          <mxGeometry x="-80" y="960" width="380" height="86" as="geometry" />
        </mxCell>
        <mxCell id="M7h40Pn0DfAwbQycr6Y6-22" value="+ app_state: AppState" style="text;strokeColor=none;fillColor=none;align=left;verticalAlign=top;spacingLeft=4;spacingRight=4;overflow=hidden;rotatable=0;points=[[0,0.5],[1,0.5]];portConstraint=eastwest;whiteSpace=wrap;html=1;" parent="M7h40Pn0DfAwbQycr6Y6-21" vertex="1">
          <mxGeometry y="26" width="380" height="26" as="geometry" />
        </mxCell>
        <mxCell id="M7h40Pn0DfAwbQycr6Y6-23" value="" style="line;strokeWidth=1;fillColor=none;align=left;verticalAlign=middle;spacingTop=-1;spacingLeft=3;spacingRight=3;rotatable=0;labelPosition=right;points=[];portConstraint=eastwest;strokeColor=inherit;" parent="M7h40Pn0DfAwbQycr6Y6-21" vertex="1">
          <mxGeometry y="52" width="380" height="8" as="geometry" />
        </mxCell>
        <mxCell id="M7h40Pn0DfAwbQycr6Y6-24" value="+ __init__(in main_window:&amp;nbsp;QWidget, in app_state: AppState): None" style="text;strokeColor=none;fillColor=none;align=left;verticalAlign=top;spacingLeft=4;spacingRight=4;overflow=hidden;rotatable=0;points=[[0,0.5],[1,0.5]];portConstraint=eastwest;whiteSpace=wrap;html=1;" parent="M7h40Pn0DfAwbQycr6Y6-21" vertex="1">
          <mxGeometry y="60" width="380" height="26" as="geometry" />
        </mxCell>
        <mxCell id="M7h40Pn0DfAwbQycr6Y6-25" value="&lt;div&gt;&lt;span style=&quot;background-color: transparent; color: light-dark(rgb(0, 0, 0), rgb(255, 255, 255));&quot;&gt;Solution&lt;/span&gt;&lt;/div&gt;" style="swimlane;fontStyle=1;align=center;verticalAlign=top;childLayout=stackLayout;horizontal=1;startSize=26;horizontalStack=0;resizeParent=1;resizeParentMax=0;resizeLast=0;collapsible=1;marginBottom=0;whiteSpace=wrap;html=1;" parent="1" vertex="1">
          <mxGeometry x="440" y="200" width="440" height="110" as="geometry" />
        </mxCell>
        <mxCell id="M7h40Pn0DfAwbQycr6Y6-26" value="+&amp;nbsp;solving_time_us: int&lt;div&gt;+ path: List(Vector2D)&lt;/div&gt;" style="text;strokeColor=none;fillColor=none;align=left;verticalAlign=top;spacingLeft=4;spacingRight=4;overflow=hidden;rotatable=0;points=[[0,0.5],[1,0.5]];portConstraint=eastwest;whiteSpace=wrap;html=1;" parent="M7h40Pn0DfAwbQycr6Y6-25" vertex="1">
          <mxGeometry y="26" width="440" height="44" as="geometry" />
        </mxCell>
        <mxCell id="M7h40Pn0DfAwbQycr6Y6-27" value="" style="line;strokeWidth=1;fillColor=none;align=left;verticalAlign=middle;spacingTop=-1;spacingLeft=3;spacingRight=3;rotatable=0;labelPosition=right;points=[];portConstraint=eastwest;strokeColor=inherit;" parent="M7h40Pn0DfAwbQycr6Y6-25" vertex="1">
          <mxGeometry y="70" width="440" height="8" as="geometry" />
        </mxCell>
        <mxCell id="M7h40Pn0DfAwbQycr6Y6-28" value="+ __init__(in solving_time_us: int, in path: List(Vector2D): None" style="text;strokeColor=none;fillColor=none;align=left;verticalAlign=top;spacingLeft=4;spacingRight=4;overflow=hidden;rotatable=0;points=[[0,0.5],[1,0.5]];portConstraint=eastwest;whiteSpace=wrap;html=1;" parent="M7h40Pn0DfAwbQycr6Y6-25" vertex="1">
          <mxGeometry y="78" width="440" height="32" as="geometry" />
        </mxCell>
        <mxCell id="M7h40Pn0DfAwbQycr6Y6-33" value="MainWindow" style="swimlane;fontStyle=1;align=center;verticalAlign=top;childLayout=stackLayout;horizontal=1;startSize=26;horizontalStack=0;resizeParent=1;resizeParentMax=0;resizeLast=0;collapsible=1;marginBottom=0;whiteSpace=wrap;html=1;" parent="1" vertex="1">
          <mxGeometry x="440" y="720" width="440" height="90" as="geometry" />
        </mxCell>
        <mxCell id="M7h40Pn0DfAwbQycr6Y6-34" value="+ app_state: AppState" style="text;strokeColor=none;fillColor=none;align=left;verticalAlign=top;spacingLeft=4;spacingRight=4;overflow=hidden;rotatable=0;points=[[0,0.5],[1,0.5]];portConstraint=eastwest;whiteSpace=wrap;html=1;" parent="M7h40Pn0DfAwbQycr6Y6-33" vertex="1">
          <mxGeometry y="26" width="440" height="26" as="geometry" />
        </mxCell>
        <mxCell id="M7h40Pn0DfAwbQycr6Y6-35" value="" style="line;strokeWidth=1;fillColor=none;align=left;verticalAlign=middle;spacingTop=-1;spacingLeft=3;spacingRight=3;rotatable=0;labelPosition=right;points=[];portConstraint=eastwest;strokeColor=inherit;" parent="M7h40Pn0DfAwbQycr6Y6-33" vertex="1">
          <mxGeometry y="52" width="440" height="8" as="geometry" />
        </mxCell>
        <mxCell id="M7h40Pn0DfAwbQycr6Y6-36" value="+ __init__(in app_state: AppState): None" style="text;strokeColor=none;fillColor=none;align=left;verticalAlign=top;spacingLeft=4;spacingRight=4;overflow=hidden;rotatable=0;points=[[0,0.5],[1,0.5]];portConstraint=eastwest;whiteSpace=wrap;html=1;" parent="M7h40Pn0DfAwbQycr6Y6-33" vertex="1">
          <mxGeometry y="60" width="440" height="30" as="geometry" />
        </mxCell>
        <mxCell id="M7h40Pn0DfAwbQycr6Y6-50" value="SolversUI" style="swimlane;fontStyle=1;align=center;verticalAlign=top;childLayout=stackLayout;horizontal=1;startSize=26;horizontalStack=0;resizeParent=1;resizeParentMax=0;resizeLast=0;collapsible=1;marginBottom=0;whiteSpace=wrap;html=1;" parent="1" vertex="1">
          <mxGeometry x="500" y="960" width="380" height="86" as="geometry" />
        </mxCell>
        <mxCell id="M7h40Pn0DfAwbQycr6Y6-51" value="+ app_state: AppState" style="text;strokeColor=none;fillColor=none;align=left;verticalAlign=top;spacingLeft=4;spacingRight=4;overflow=hidden;rotatable=0;points=[[0,0.5],[1,0.5]];portConstraint=eastwest;whiteSpace=wrap;html=1;" parent="M7h40Pn0DfAwbQycr6Y6-50" vertex="1">
          <mxGeometry y="26" width="380" height="26" as="geometry" />
        </mxCell>
        <mxCell id="M7h40Pn0DfAwbQycr6Y6-52" value="" style="line;strokeWidth=1;fillColor=none;align=left;verticalAlign=middle;spacingTop=-1;spacingLeft=3;spacingRight=3;rotatable=0;labelPosition=right;points=[];portConstraint=eastwest;strokeColor=inherit;" parent="M7h40Pn0DfAwbQycr6Y6-50" vertex="1">
          <mxGeometry y="52" width="380" height="8" as="geometry" />
        </mxCell>
        <mxCell id="M7h40Pn0DfAwbQycr6Y6-53" value="+ __init__(in main_window:&amp;nbsp;QWidget, in app_state: AppState): None" style="text;strokeColor=none;fillColor=none;align=left;verticalAlign=top;spacingLeft=4;spacingRight=4;overflow=hidden;rotatable=0;points=[[0,0.5],[1,0.5]];portConstraint=eastwest;whiteSpace=wrap;html=1;" parent="M7h40Pn0DfAwbQycr6Y6-50" vertex="1">
          <mxGeometry y="60" width="380" height="26" as="geometry" />
        </mxCell>
        <mxCell id="M7h40Pn0DfAwbQycr6Y6-54" value="Solver" style="swimlane;fontStyle=1;align=center;verticalAlign=top;childLayout=stackLayout;horizontal=1;startSize=26;horizontalStack=0;resizeParent=1;resizeParentMax=0;resizeLast=0;collapsible=1;marginBottom=0;whiteSpace=wrap;html=1;" parent="1" vertex="1">
          <mxGeometry x="440" y="400" width="440" height="170" as="geometry" />
        </mxCell>
        <mxCell id="M7h40Pn0DfAwbQycr6Y6-55" value="+ name: str&lt;div&gt;+ command: str&lt;/div&gt;&lt;div&gt;+ checked: bool&lt;/div&gt;" style="text;strokeColor=none;fillColor=none;align=left;verticalAlign=top;spacingLeft=4;spacingRight=4;overflow=hidden;rotatable=0;points=[[0,0.5],[1,0.5]];portConstraint=eastwest;whiteSpace=wrap;html=1;" parent="M7h40Pn0DfAwbQycr6Y6-54" vertex="1">
          <mxGeometry y="26" width="440" height="54" as="geometry" />
        </mxCell>
        <mxCell id="M7h40Pn0DfAwbQycr6Y6-56" value="" style="line;strokeWidth=1;fillColor=none;align=left;verticalAlign=middle;spacingTop=-1;spacingLeft=3;spacingRight=3;rotatable=0;labelPosition=right;points=[];portConstraint=eastwest;strokeColor=inherit;" parent="M7h40Pn0DfAwbQycr6Y6-54" vertex="1">
          <mxGeometry y="80" width="440" height="8" as="geometry" />
        </mxCell>
        <mxCell id="M7h40Pn0DfAwbQycr6Y6-57" value="+ __init__(in name: str, in command: str, in checked: bool): None&lt;div&gt;&lt;div&gt;+ __init__(in xml_root: xml.etree.ElementTree.Element): None&lt;/div&gt;&lt;/div&gt;&lt;div&gt;&lt;div&gt;+ load(in xml_root:&amp;nbsp;&lt;span style=&quot;background-color: transparent; color: light-dark(rgb(0, 0, 0), rgb(255, 255, 255));&quot;&gt;xml.etree.ElementTree.Element): None&lt;/span&gt;&lt;/div&gt;&lt;div&gt;&lt;span style=&quot;background-color: transparent; color: light-dark(rgb(0, 0, 0), rgb(255, 255, 255));&quot;&gt;+ save(out xml_root:&amp;nbsp;&lt;/span&gt;&lt;span style=&quot;background-color: transparent; color: light-dark(rgb(0, 0, 0), rgb(255, 255, 255));&quot;&gt;xml.etree.ElementTree.Element): None&lt;/span&gt;&lt;/div&gt;&lt;/div&gt;&lt;div&gt;+ run(in maze: Maze): Solution&lt;span style=&quot;background-color: transparent; color: light-dark(rgb(0, 0, 0), rgb(255, 255, 255));&quot;&gt;&lt;/span&gt;&lt;/div&gt;" style="text;strokeColor=none;fillColor=none;align=left;verticalAlign=top;spacingLeft=4;spacingRight=4;overflow=hidden;rotatable=0;points=[[0,0.5],[1,0.5]];portConstraint=eastwest;whiteSpace=wrap;html=1;" parent="M7h40Pn0DfAwbQycr6Y6-54" vertex="1">
          <mxGeometry y="88" width="440" height="82" as="geometry" />
        </mxCell>
        <mxCell id="M7h40Pn0DfAwbQycr6Y6-58" value="RaportGeneratorUI" style="swimlane;fontStyle=1;align=center;verticalAlign=top;childLayout=stackLayout;horizontal=1;startSize=26;horizontalStack=0;resizeParent=1;resizeParentMax=0;resizeLast=0;collapsible=1;marginBottom=0;whiteSpace=wrap;html=1;" parent="1" vertex="1">
          <mxGeometry x="210" y="1120" width="380" height="86" as="geometry" />
        </mxCell>
        <mxCell id="M7h40Pn0DfAwbQycr6Y6-59" value="+ app_state: AppState" style="text;strokeColor=none;fillColor=none;align=left;verticalAlign=top;spacingLeft=4;spacingRight=4;overflow=hidden;rotatable=0;points=[[0,0.5],[1,0.5]];portConstraint=eastwest;whiteSpace=wrap;html=1;" parent="M7h40Pn0DfAwbQycr6Y6-58" vertex="1">
          <mxGeometry y="26" width="380" height="26" as="geometry" />
        </mxCell>
        <mxCell id="M7h40Pn0DfAwbQycr6Y6-60" value="" style="line;strokeWidth=1;fillColor=none;align=left;verticalAlign=middle;spacingTop=-1;spacingLeft=3;spacingRight=3;rotatable=0;labelPosition=right;points=[];portConstraint=eastwest;strokeColor=inherit;" parent="M7h40Pn0DfAwbQycr6Y6-58" vertex="1">
          <mxGeometry y="52" width="380" height="8" as="geometry" />
        </mxCell>
        <mxCell id="M7h40Pn0DfAwbQycr6Y6-61" value="+ __init__(in main_window:&amp;nbsp;QWidget, in app_state: AppState): None" style="text;strokeColor=none;fillColor=none;align=left;verticalAlign=top;spacingLeft=4;spacingRight=4;overflow=hidden;rotatable=0;points=[[0,0.5],[1,0.5]];portConstraint=eastwest;whiteSpace=wrap;html=1;" parent="M7h40Pn0DfAwbQycr6Y6-58" vertex="1">
          <mxGeometry y="60" width="380" height="26" as="geometry" />
        </mxCell>
        <mxCell id="M7h40Pn0DfAwbQycr6Y6-66" value="Vector2D" style="swimlane;fontStyle=1;align=center;verticalAlign=top;childLayout=stackLayout;horizontal=1;startSize=26;horizontalStack=0;resizeParent=1;resizeParentMax=0;resizeLast=0;collapsible=1;marginBottom=0;whiteSpace=wrap;html=1;" parent="1" vertex="1">
          <mxGeometry x="-80" y="200" width="440" height="104" as="geometry" />
        </mxCell>
        <mxCell id="M7h40Pn0DfAwbQycr6Y6-67" value="+ x: int&lt;div&gt;+ y: int&lt;/div&gt;" style="text;strokeColor=none;fillColor=none;align=left;verticalAlign=top;spacingLeft=4;spacingRight=4;overflow=hidden;rotatable=0;points=[[0,0.5],[1,0.5]];portConstraint=eastwest;whiteSpace=wrap;html=1;" parent="M7h40Pn0DfAwbQycr6Y6-66" vertex="1">
          <mxGeometry y="26" width="440" height="44" as="geometry" />
        </mxCell>
        <mxCell id="M7h40Pn0DfAwbQycr6Y6-68" value="" style="line;strokeWidth=1;fillColor=none;align=left;verticalAlign=middle;spacingTop=-1;spacingLeft=3;spacingRight=3;rotatable=0;labelPosition=right;points=[];portConstraint=eastwest;strokeColor=inherit;" parent="M7h40Pn0DfAwbQycr6Y6-66" vertex="1">
          <mxGeometry y="70" width="440" height="8" as="geometry" />
        </mxCell>
        <mxCell id="M7h40Pn0DfAwbQycr6Y6-69" value="+ __init__(in x: int, in y: int): None" style="text;strokeColor=none;fillColor=none;align=left;verticalAlign=top;spacingLeft=4;spacingRight=4;overflow=hidden;rotatable=0;points=[[0,0.5],[1,0.5]];portConstraint=eastwest;whiteSpace=wrap;html=1;" parent="M7h40Pn0DfAwbQycr6Y6-66" vertex="1">
          <mxGeometry y="78" width="440" height="26" as="geometry" />
        </mxCell>
        <mxCell id="jfCYQrXntbui4snYk5Ia-1" value="Use" style="endArrow=open;endSize=12;dashed=1;html=1;rounded=0;exitX=0.5;exitY=0;exitDx=0;exitDy=0;entryX=0.5;entryY=1.038;entryDx=0;entryDy=0;entryPerimeter=0;" edge="1" parent="1" source="M7h40Pn0DfAwbQycr6Y6-1" target="M7h40Pn0DfAwbQycr6Y6-69">
          <mxGeometry width="160" relative="1" as="geometry">
            <mxPoint x="140" y="301" as="sourcePoint" />
            <mxPoint x="170" y="360" as="targetPoint" />
          </mxGeometry>
        </mxCell>
        <mxCell id="jfCYQrXntbui4snYk5Ia-2" value="Use" style="endArrow=open;endSize=12;dashed=1;html=1;rounded=0;entryX=1.002;entryY=0.574;entryDx=0;entryDy=0;entryPerimeter=0;exitX=-0.007;exitY=1;exitDx=0;exitDy=0;exitPerimeter=0;" edge="1" parent="1" source="M7h40Pn0DfAwbQycr6Y6-55" target="M7h40Pn0DfAwbQycr6Y6-2">
          <mxGeometry width="160" relative="1" as="geometry">
            <mxPoint x="380" y="380" as="sourcePoint" />
            <mxPoint x="540" y="380" as="targetPoint" />
          </mxGeometry>
        </mxCell>
        <mxCell id="jfCYQrXntbui4snYk5Ia-3" value="Use" style="endArrow=open;endSize=12;dashed=1;html=1;rounded=0;entryX=0.502;entryY=1.031;entryDx=0;entryDy=0;entryPerimeter=0;exitX=0.5;exitY=0;exitDx=0;exitDy=0;" edge="1" parent="1" source="M7h40Pn0DfAwbQycr6Y6-54" target="M7h40Pn0DfAwbQycr6Y6-28">
          <mxGeometry width="160" relative="1" as="geometry">
            <mxPoint x="380" y="380" as="sourcePoint" />
            <mxPoint x="540" y="380" as="targetPoint" />
          </mxGeometry>
        </mxCell>
        <mxCell id="jfCYQrXntbui4snYk5Ia-4" value="Use" style="endArrow=open;endSize=12;dashed=1;html=1;rounded=0;exitX=0;exitY=0.5;exitDx=0;exitDy=0;entryX=1;entryY=0.5;entryDx=0;entryDy=0;" edge="1" parent="1" source="M7h40Pn0DfAwbQycr6Y6-26" target="M7h40Pn0DfAwbQycr6Y6-67">
          <mxGeometry width="160" relative="1" as="geometry">
            <mxPoint x="380" y="380" as="sourcePoint" />
            <mxPoint x="540" y="380" as="targetPoint" />
          </mxGeometry>
        </mxCell>
        <mxCell id="jfCYQrXntbui4snYk5Ia-5" value="Use" style="endArrow=open;endSize=12;dashed=1;html=1;rounded=0;entryX=1;entryY=0.923;entryDx=0;entryDy=0;entryPerimeter=0;exitX=0;exitY=0;exitDx=0;exitDy=0;" edge="1" parent="1" source="M7h40Pn0DfAwbQycr6Y6-54" target="M7h40Pn0DfAwbQycr6Y6-69">
          <mxGeometry width="160" relative="1" as="geometry">
            <mxPoint x="410" y="500" as="sourcePoint" />
            <mxPoint x="570" y="500" as="targetPoint" />
          </mxGeometry>
        </mxCell>
        <mxCell id="jfCYQrXntbui4snYk5Ia-6" value="Use" style="endArrow=open;endSize=12;dashed=1;html=1;rounded=0;exitX=0;exitY=0.5;exitDx=0;exitDy=0;" edge="1" parent="1" source="M7h40Pn0DfAwbQycr6Y6-34">
          <mxGeometry width="160" relative="1" as="geometry">
            <mxPoint x="410" y="700" as="sourcePoint" />
            <mxPoint x="360" y="758" as="targetPoint" />
          </mxGeometry>
        </mxCell>
        <mxCell id="jfCYQrXntbui4snYk5Ia-7" value="Use" style="endArrow=open;endSize=12;dashed=1;html=1;rounded=0;entryX=-0.002;entryY=0.976;entryDx=0;entryDy=0;entryPerimeter=0;exitX=1;exitY=0;exitDx=0;exitDy=0;" edge="1" parent="1" source="M7h40Pn0DfAwbQycr6Y6-13" target="M7h40Pn0DfAwbQycr6Y6-57">
          <mxGeometry width="160" relative="1" as="geometry">
            <mxPoint x="410" y="700" as="sourcePoint" />
            <mxPoint x="570" y="700" as="targetPoint" />
          </mxGeometry>
        </mxCell>
        <mxCell id="jfCYQrXntbui4snYk5Ia-8" value="Use" style="endArrow=open;endSize=12;dashed=1;html=1;rounded=0;entryX=0.502;entryY=1;entryDx=0;entryDy=0;entryPerimeter=0;exitX=0.5;exitY=0;exitDx=0;exitDy=0;" edge="1" parent="1" source="M7h40Pn0DfAwbQycr6Y6-13" target="M7h40Pn0DfAwbQycr6Y6-4">
          <mxGeometry width="160" relative="1" as="geometry">
            <mxPoint x="410" y="700" as="sourcePoint" />
            <mxPoint x="570" y="700" as="targetPoint" />
          </mxGeometry>
        </mxCell>
        <mxCell id="jfCYQrXntbui4snYk5Ia-9" value="Use" style="endArrow=open;endSize=12;dashed=1;html=1;rounded=0;exitX=0.184;exitY=1.033;exitDx=0;exitDy=0;exitPerimeter=0;entryX=0.474;entryY=0.023;entryDx=0;entryDy=0;entryPerimeter=0;" edge="1" parent="1" source="M7h40Pn0DfAwbQycr6Y6-36" target="M7h40Pn0DfAwbQycr6Y6-50">
          <mxGeometry width="160" relative="1" as="geometry">
            <mxPoint x="410" y="940" as="sourcePoint" />
            <mxPoint x="570" y="940" as="targetPoint" />
          </mxGeometry>
        </mxCell>
        <mxCell id="jfCYQrXntbui4snYk5Ia-10" value="Use" style="endArrow=open;endSize=12;dashed=1;html=1;rounded=0;exitX=0.091;exitY=1.067;exitDx=0;exitDy=0;exitPerimeter=0;entryX=0.5;entryY=0;entryDx=0;entryDy=0;" edge="1" parent="1" source="M7h40Pn0DfAwbQycr6Y6-36" target="M7h40Pn0DfAwbQycr6Y6-58">
          <mxGeometry width="160" relative="1" as="geometry">
            <mxPoint x="480" y="830" as="sourcePoint" />
            <mxPoint x="570" y="940" as="targetPoint" />
          </mxGeometry>
        </mxCell>
        <mxCell id="jfCYQrXntbui4snYk5Ia-11" value="Use" style="endArrow=open;endSize=12;dashed=1;html=1;rounded=0;exitX=-0.005;exitY=1.033;exitDx=0;exitDy=0;exitPerimeter=0;entryX=1;entryY=0.5;entryDx=0;entryDy=0;" edge="1" parent="1" source="M7h40Pn0DfAwbQycr6Y6-36" target="M7h40Pn0DfAwbQycr6Y6-22">
          <mxGeometry width="160" relative="1" as="geometry">
            <mxPoint x="410" y="940" as="sourcePoint" />
            <mxPoint x="570" y="940" as="targetPoint" />
          </mxGeometry>
        </mxCell>
        <mxCell id="jfCYQrXntbui4snYk5Ia-13" value="Use" style="endArrow=open;endSize=12;dashed=1;html=1;rounded=0;exitX=0;exitY=0;exitDx=0;exitDy=0;entryX=0.991;entryY=1.016;entryDx=0;entryDy=0;entryPerimeter=0;" edge="1" parent="1" source="M7h40Pn0DfAwbQycr6Y6-50" target="M7h40Pn0DfAwbQycr6Y6-16">
          <mxGeometry width="160" relative="1" as="geometry">
            <mxPoint x="410" y="940" as="sourcePoint" />
            <mxPoint x="570" y="940" as="targetPoint" />
          </mxGeometry>
        </mxCell>
        <mxCell id="jfCYQrXntbui4snYk5Ia-14" value="Use" style="endArrow=open;endSize=12;dashed=1;html=1;rounded=0;entryX=0.909;entryY=1.032;entryDx=0;entryDy=0;entryPerimeter=0;exitX=0.395;exitY=-0.035;exitDx=0;exitDy=0;exitPerimeter=0;" edge="1" parent="1" source="M7h40Pn0DfAwbQycr6Y6-58" target="M7h40Pn0DfAwbQycr6Y6-16">
          <mxGeometry width="160" relative="1" as="geometry">
            <mxPoint x="410" y="940" as="sourcePoint" />
            <mxPoint x="570" y="940" as="targetPoint" />
          </mxGeometry>
        </mxCell>
        <mxCell id="jfCYQrXntbui4snYk5Ia-15" value="Use" style="endArrow=open;endSize=12;dashed=1;html=1;rounded=0;entryX=0.455;entryY=1.032;entryDx=0;entryDy=0;entryPerimeter=0;" edge="1" parent="1" target="M7h40Pn0DfAwbQycr6Y6-16">
          <mxGeometry width="160" relative="1" as="geometry">
            <mxPoint x="120" y="957" as="sourcePoint" />
            <mxPoint x="570" y="940" as="targetPoint" />
          </mxGeometry>
        </mxCell>
      </root>
    </mxGraphModel>
  </diagram>
</mxfile>
